<mxfile host="app.diagrams.net" agent="Mozilla/5.0 (Windows NT 10.0; Win64; x64) AppleWebKit/537.36 (KHTML, like Gecko) Chrome/132.0.0.0 Safari/537.36" version="26.0.10">
  <diagram name="Page-1" id="wBeFC0M9ZQTNsPrkAxpN">
    <mxGraphModel dx="2100" dy="1126" grid="1" gridSize="10" guides="1" tooltips="1" connect="1" arrows="1" fold="1" page="1" pageScale="1" pageWidth="850" pageHeight="1100" math="0" shadow="0">
      <root>
        <mxCell id="0" />
        <mxCell id="1" parent="0" />
        <mxCell id="jeH-U12oKPDk1r_460DB-1" value="" style="rounded=0;whiteSpace=wrap;html=1;fillColor=#f5f5f5;fontColor=#333333;strokeColor=#666666;" vertex="1" parent="1">
          <mxGeometry x="150" y="420" width="520" height="530" as="geometry" />
        </mxCell>
        <mxCell id="jeH-U12oKPDk1r_460DB-2" value="UI Service" style="rounded=1;whiteSpace=wrap;html=1;fillColor=#dae8fc;strokeColor=#6c8ebf;fontSize=28;fontStyle=1" vertex="1" parent="1">
          <mxGeometry x="180" y="460" width="440" height="80" as="geometry" />
        </mxCell>
        <mxCell id="jeH-U12oKPDk1r_460DB-3" style="edgeStyle=orthogonalEdgeStyle;rounded=0;orthogonalLoop=1;jettySize=auto;html=1;" edge="1" parent="1" source="jeH-U12oKPDk1r_460DB-4" target="jeH-U12oKPDk1r_460DB-2">
          <mxGeometry relative="1" as="geometry" />
        </mxCell>
        <mxCell id="jeH-U12oKPDk1r_460DB-4" value="Patient" style="shape=umlActor;verticalLabelPosition=bottom;verticalAlign=top;html=1;outlineConnect=0;fontSize=17;" vertex="1" parent="1">
          <mxGeometry x="385" y="260" width="30" height="60" as="geometry" />
        </mxCell>
        <mxCell id="jeH-U12oKPDk1r_460DB-5" value="Interacts" style="text;html=1;align=center;verticalAlign=middle;whiteSpace=wrap;rounded=0;" vertex="1" parent="1">
          <mxGeometry x="410" y="370" width="60" height="30" as="geometry" />
        </mxCell>
        <mxCell id="jeH-U12oKPDk1r_460DB-6" value="Redis Queue/Storage" style="rounded=1;whiteSpace=wrap;html=1;fillColor=#f8cecc;strokeColor=#b85450;fontSize=25;fontStyle=1" vertex="1" parent="1">
          <mxGeometry x="180" y="610" width="440" height="60" as="geometry" />
        </mxCell>
        <mxCell id="jeH-U12oKPDk1r_460DB-7" value="" style="shape=flexArrow;endArrow=classic;startArrow=classic;html=1;rounded=0;entryX=0.5;entryY=1;entryDx=0;entryDy=0;exitX=0.5;exitY=0;exitDx=0;exitDy=0;" edge="1" parent="1" source="jeH-U12oKPDk1r_460DB-6" target="jeH-U12oKPDk1r_460DB-2">
          <mxGeometry width="100" height="100" relative="1" as="geometry">
            <mxPoint x="360" y="695" as="sourcePoint" />
            <mxPoint x="460" y="595" as="targetPoint" />
          </mxGeometry>
        </mxCell>
        <mxCell id="jeH-U12oKPDk1r_460DB-8" value="" style="rounded=1;whiteSpace=wrap;html=1;fillColor=#e1d5e7;strokeColor=#9673a6;" vertex="1" parent="1">
          <mxGeometry x="175" y="750" width="450" height="130" as="geometry" />
        </mxCell>
        <mxCell id="jeH-U12oKPDk1r_460DB-9" value="Authentication Service" style="rounded=1;whiteSpace=wrap;html=1;fillColor=#ffe6cc;strokeColor=#d79b00;fontSize=17;fontStyle=1" vertex="1" parent="1">
          <mxGeometry x="255" y="785" width="120" height="60" as="geometry" />
        </mxCell>
        <mxCell id="jeH-U12oKPDk1r_460DB-10" value="Device Registration Service" style="rounded=1;whiteSpace=wrap;html=1;fillColor=#fff2cc;strokeColor=#d6b656;fontSize=16;fontStyle=1" vertex="1" parent="1">
          <mxGeometry x="420" y="785" width="120" height="60" as="geometry" />
        </mxCell>
        <mxCell id="jeH-U12oKPDk1r_460DB-11" value="" style="shape=flexArrow;endArrow=classic;startArrow=classic;html=1;rounded=0;entryX=0.5;entryY=1;entryDx=0;entryDy=0;exitX=0.5;exitY=0;exitDx=0;exitDy=0;" edge="1" parent="1" source="jeH-U12oKPDk1r_460DB-8" target="jeH-U12oKPDk1r_460DB-6">
          <mxGeometry width="100" height="100" relative="1" as="geometry">
            <mxPoint x="540" y="760" as="sourcePoint" />
            <mxPoint x="640" y="660" as="targetPoint" />
          </mxGeometry>
        </mxCell>
        <mxCell id="jeH-U12oKPDk1r_460DB-16" value="&lt;font style=&quot;font-size: 32px;&quot;&gt;Events HUB&lt;/font&gt;" style="image;aspect=fixed;html=1;points=[];align=center;fontSize=12;image=img/lib/azure2/iot/Event_Hubs.svg;labelPosition=center;verticalLabelPosition=top;verticalAlign=bottom;fontStyle=1" vertex="1" parent="1">
          <mxGeometry x="1240" y="830" width="195.42" height="175" as="geometry" />
        </mxCell>
        <mxCell id="jeH-U12oKPDk1r_460DB-17" value="" style="html=1;shadow=0;dashed=0;align=center;verticalAlign=middle;shape=mxgraph.arrows2.bendDoubleArrow;dy=15;dx=38;arrowHead=62;rounded=0;rotation=-90;" vertex="1" parent="1">
          <mxGeometry x="791.25" y="506.25" width="100" height="777.5" as="geometry" />
        </mxCell>
        <mxCell id="jeH-U12oKPDk1r_460DB-25" value="Azure Functions" style="image;aspect=fixed;html=1;points=[];align=center;fontSize=27;image=img/lib/azure2/compute/Function_Apps.svg;labelPosition=center;verticalLabelPosition=top;verticalAlign=bottom;fontStyle=1" vertex="1" parent="1">
          <mxGeometry x="1620" y="570" width="113.33" height="100" as="geometry" />
        </mxCell>
        <mxCell id="jeH-U12oKPDk1r_460DB-26" value="" style="shape=flexArrow;endArrow=classic;html=1;rounded=0;endWidth=50.76923076923077;endSize=12.23076923076923;width=26.153846153846153;" edge="1" parent="1">
          <mxGeometry width="50" height="50" relative="1" as="geometry">
            <mxPoint x="1480" y="780" as="sourcePoint" />
            <mxPoint x="1590" y="690" as="targetPoint" />
          </mxGeometry>
        </mxCell>
        <mxCell id="jeH-U12oKPDk1r_460DB-27" value="&lt;font style=&quot;font-size: 22px;&quot;&gt;&lt;b&gt;Azure Cosmos DB&lt;/b&gt;&lt;/font&gt;" style="image;aspect=fixed;html=1;points=[];align=center;fontSize=12;image=img/lib/azure2/databases/Azure_Cosmos_DB.svg;labelPosition=center;verticalLabelPosition=top;verticalAlign=bottom;" vertex="1" parent="1">
          <mxGeometry x="2010" y="540" width="152.18" height="152.18" as="geometry" />
        </mxCell>
        <mxCell id="jeH-U12oKPDk1r_460DB-28" value="" style="html=1;shadow=0;dashed=0;align=center;verticalAlign=middle;shape=mxgraph.arrows2.arrow;dy=0.6;dx=40;notch=0;" vertex="1" parent="1">
          <mxGeometry x="1840" y="585" width="100" height="70" as="geometry" />
        </mxCell>
        <mxCell id="jeH-U12oKPDk1r_460DB-29" value="Azure Device Provisioning Service" style="image;aspect=fixed;html=1;points=[];align=center;fontSize=32;image=img/lib/azure2/iot/Device_Provisioning_Services.svg;fontStyle=1;labelPosition=center;verticalLabelPosition=top;verticalAlign=bottom;" vertex="1" parent="1">
          <mxGeometry x="870" y="1040" width="122.18" height="126" as="geometry" />
        </mxCell>
        <mxCell id="jeH-U12oKPDk1r_460DB-30" value="" style="html=1;shadow=0;dashed=0;align=center;verticalAlign=middle;shape=mxgraph.arrows2.bendDoubleArrow;dy=15;dx=38;arrowHead=62;rounded=0;rotation=-90;" vertex="1" parent="1">
          <mxGeometry x="424.22" y="702.05" width="285.63" height="571.55" as="geometry" />
        </mxCell>
      </root>
    </mxGraphModel>
  </diagram>
</mxfile>
